/* XPM */
static char *_3aea51ac19a4c69dc3448ac0689fac8EZr0cuwVqKnRD88E[] = {
/* columns rows colors chars-per-pixel */
"50 50 208 2 ",
"   c #161C45",
".  c #18224C",
"X  c #182D57",
"o  c #222C58",
"O  c #2C355E",
"+  c #1B3665",
"@  c #662C4F",
"#  c #513A6E",
"$  c #733C68",
"%  c #164C65",
"&  c #0F4877",
"*  c #274667",
"=  c #334669",
"-  c #33536A",
";  c #48596B",
":  c #524B73",
">  c #475D74",
",  c #6E5475",
"<  c #486277",
"1  c #55687B",
"2  c #696B7E",
"3  c #BC0227",
"4  c #B60631",
"5  c #B60B37",
"6  c #D7050D",
"7  c #DD010A",
"8  c #C90018",
"9  c #CB001A",
"0  c #D50616",
"q  c #D91518",
"w  c #EE0106",
"e  c #E6060C",
"r  c #E9030A",
"t  c #F30105",
"y  c #F70B09",
"u  c #E9160F",
"i  c #E40E12",
"p  c #E81615",
"a  c #E3161A",
"s  c #F71213",
"d  c #C90827",
"f  c #DC1E22",
"g  c #C51737",
"h  c #DD2225",
"j  c #DF2A2E",
"k  c #C42634",
"l  c #CA383D",
"z  c #DB3437",
"x  c #EA2930",
"c  c #B11646",
"v  c #BA364A",
"b  c #B9325A",
"n  c #893B69",
"m  c #A5396A",
"M  c #C21C43",
"N  c #C32649",
"B  c #CF3F41",
"V  c #D93952",
"C  c #EB3D4A",
"Z  c #B8415F",
"A  c #89416A",
"S  c #9E506F",
"D  c #B1476C",
"F  c #BD6778",
"G  c #CD4A4C",
"H  c #DE4A4B",
"J  c #CD4855",
"K  c #CC595B",
"L  c #DA585B",
"P  c #F45C67",
"I  c #CE6869",
"U  c #D26769",
"Y  c #CA757C",
"T  c #D77577",
"R  c #F46A73",
"E  c #E17E7F",
"W  c #0D4B86",
"Q  c #074792",
"!  c #365182",
"~  c #076594",
"^  c #3B6A94",
"/  c #025CA7",
"(  c #5B5B80",
")  c #7A4E87",
"_  c #536C8C",
"`  c #486F97",
"'  c #547899",
"]  c #687786",
"[  c #78768B",
"{  c #667DA1",
"}  c #885B94",
"|  c #B54C80",
" . c #AC598C",
".. c #8A7086",
"X. c #D36B84",
"o. c #C97883",
"O. c #6C828E",
"+. c #73818D",
"@. c #788494",
"#. c #5A81A4",
"$. c #5F93BC",
"%. c #6389A6",
"&. c #7D97AF",
"*. c #72A0BD",
"=. c #70ABC9",
"-. c #8C8F97",
";. c #858C9C",
":. c #979799",
">. c #A5A39D",
",. c #979EA5",
"<. c #8998B8",
"1. c #A59EA4",
"2. c #9AA1B1",
"3. c #A4A4A2",
"4. c #A8A7A4",
"5. c #ADAAA3",
"6. c #B4A8A7",
"7. c #B1ACA4",
"8. c #ACB1AE",
"9. c #B6B2AB",
"0. c #B9B5AD",
"q. c #A9B2B0",
"w. c #B6B6B5",
"e. c #B8B7B3",
"r. c #B7B8B7",
"t. c #BBBAB6",
"y. c #B6B7B9",
"u. c #B7B8BC",
"i. c #BBBBBB",
"p. c #DD8C8D",
"a. c #C89497",
"s. c #D79597",
"d. c #FE8E90",
"f. c #D19FA1",
"g. c #C7AAAB",
"h. c #D6A8A8",
"j. c #D1ACB0",
"k. c #C8B5B5",
"l. c #C1BCB7",
"z. c #C2BEB9",
"x. c #CCBBBD",
"c. c #D5B6B8",
"v. c #D2BBBC",
"b. c #C6C1BC",
"n. c #C9C4BE",
"m. c #89B7C6",
"M. c #9EBDC9",
"N. c #A7ABC4",
"B. c #A6B8C6",
"V. c #B3B8C0",
"C. c #BDBEC1",
"Z. c #BDBFD1",
"A. c #ABC3CE",
"S. c #BFC0C3",
"D. c #B9C7CB",
"F. c #C3C3C4",
"G. c #CAC6C1",
"H. c #CBC9C4",
"J. c #CDCAC6",
"K. c #CDCCC7",
"L. c #CFCCC7",
"P. c #C4C6C9",
"I. c #C6C9CC",
"U. c #CFCECA",
"Y. c #CCCCCC",
"T. c #CFCECC",
"R. c #D7CBCA",
"E. c #D2CCCB",
"W. c #D0CFCB",
"Q. c #D1D0CC",
"!. c #D1D1CF",
"~. c #D3D2CE",
"^. c #CAC2D3",
"/. c #CBCED2",
"(. c #DACED1",
"). c #D2CCDA",
"_. c #CFD0D3",
"`. c #D3D3D3",
"'. c #D4D3D0",
"]. c #D5D4D3",
"[. c #D6D5D2",
"{. c #D7D7D5",
"}. c #D8D8D6",
"|. c #D9D4DA",
" X c #DADAD8",
".X c #DBDBDA",
"XX c #DCDCDC",
"oX c gray87",
"OX c #E0D6D7",
"+X c #E0DFDE",
"@X c #E0E1DF",
"#X c #D6D9E1",
"$X c #DEDBE3",
"%X c #E0DFE3",
"&X c #D6E4E5",
"*X c #DFE3E4",
"=X c #DCEBEC",
"-X c #DFEFF0",
";X c #DFF0F1",
":X c #E1E3E4",
">X c #E4E7E8",
",X c #E2EBEC",
"<X c #ECEEEE",
"1X c #E2EFF0",
"2X c #E2F1F2",
"3X c #EAF5F5",
"4X c #F3F4F5",
"5X c #F6F9F9",
/* pixels */
"oXoXoXoXoX X X}.}.{.[.[.[.'.~.~.~.~.W.W.U.U.L.H.9.U.L.L.J.J.H.H.G.G.G.n.n.n.n.n.n.n.n.n.n.n.n.n.n.n.",
"oXoXoXoX X X X}.{.{.[.[.[.'.~.~.~.~.W.U.U.U.L.G.0.W.L.J.J.H.H.G.G.G.n.n.n.n.n.n.n.n.n.n.n.n.n.n.n.n.",
"oXoXoX X}.}.}.{.{.{.[.[.'.~.~.~.~.U.W.U.U.U.L.H.0.L.J.J.J.H.z.G.G.n.n.n.n.n.n.n.n.n.b.0.n.n.n.n.n.b.",
"oXoXoX X5.[.}.{.{.[.[.[.~.~.~.~.U.>.W.U.U.L.L.H.9.L.J.J.J.G.7.G.n.n.n.n.n.n.n.n.n.n.b.0.b.b.n.n.b.b.",
"oXoX X X}.{.{.{.{.[.[.'.~.~.~.W.W.U.U.U.U.L.J.H.9.J.J.H.H.G.G.n.n.n.n.n.n.n.n.n.n.n.b.b.b.b.b.b.b.b.",
"oX X X X}.}.{.{.[.[.[.'.~.~.~.~.W.U.U.U.U.L.J.H.9.J.J.J.H.G.G.n.n.n.n.n.n.n.n.n.n.b.b.b.b.b.b.b.b.b.",
"oX X X}.}.{.{.[.[.[.[.~.~.~.~.~.W.U.U.U.L.L.J.H.9.J.J.J.H.G.n.n.n.n.n.n.b.n.n.b.b.b.b.b.b.b.b.b.b.b.",
" X X X}.{.{.{.[.[.[.'.~.~.~.~.W.U.U.U.U.J.J.J.G.9.J.J.J.H.G.n.n.n.n.n.b.b.b.b.b.b.b.b.b.b.b.b.b.b.z.",
" X X X}.{.{.{.[.[.'.'.~.~.~.W.W.U.U.L.J.J.H.J.G.9.J.J.H.H.G.G.n.n.n.b.b.b.b.b.b.b.b.b.b.b.b.b.b.z.z.",
" X X X}.{.{.[.[.[.'.`.~.~.~.W.U.U.U.L.J.J.H.H.H.9.J.J.H.G.G.n.n.n.b.b.b.b.b.b.b.b.b.b.z.b.b.b.z.z.z.",
" X X X{.{.[.[.[.`.`.~.~.~.~.U.U.U.U.J.H.H.H.H.H.9.J.H.H.G.G.G.n.b.b.b.b.b.b.b.b.b.b.b.b.b.z.z.z.z.z.",
" X X}.{.{.[.`.[.`.`.~.~.~.W.U.U.U.J.J.H.H.H.H.H.7.J.H.H.G.G.n.n.b.b.b.b.b.b.b.b.b.b.b.b.b.z.z.z.z.l.",
" X X X{.{.[.`.`.`.`.~.~.W.W.U.U.U.J.H.H.H.H.H.G.5.G.G.G.G.n.G.n.b.b.b.b.b.b.b.b.b.b.b.b.z.z.z.z.l.l.",
" X X}.{.{.`.`.`.`.`.~.~.W.U.U.U.U.J.H.,.2 ] ] 1 1 1 < > < +.n.n.b.b.b.b.b.b.b.b.b.b.z.l.l.l.t.t.t.e.",
"b.b.b.b.b.z.z.z.i.i.t.t.t.0.e.e.0.9.9.' ; ; 1 _ 1 ] ] +.* > 5.5.5.5.5.5.5.5.5.7.7.5.5.5.5.5.5.5.5.7.",
"{. X{.{.`.`.`.`.`.~.~.W.T.T.U.U.H.H.H.*.- ;.G.G.7.G.G.G.#.= r.n.n.b.b.b.b.b.b.b.b.b.b.z.z.z.z.z.l.l.",
"{.{.{.{.`.`.`.`.~.~.W.T.T.T.U.U.H.L.H.B.* ] G.G.>.8.q.q.&.O.P.`. XoX}.G.b.b.b.b.b.z.z.z.z.z.z.z.t.t.",
"{.{.{.{.`.`.`.~.~.~.T.T.T.T.U.C.3.F.L.T.V./.*X,X,X2X3X3X2X2X;X2X3X4X5X4XH.b.b.b.b.z.z.z.z.z.z.z.t.t.",
"{.{.{.{.`.`.`.~.~.~.T.T.T.S.@.,.4X4X4X<X<X<X,X=X=X,X,X1X-X-X2X;X;X-X1X5XoXb.b.b.z.z.z.z.z.z.z.l.t.t.",
"{.{.{.`.`.`.`.~.~.T.T.T.I.%.; |.>X>X:X:X:X>X,X,X&Xg.a.k.-X1X1X2X2X2X2X4X+Xb.b.z.z.z.z.z.z.z.l.t.r.t.",
"{.{.{.{.`.`.`.~.~.T.T.T.M.< _ Z.%X:X:X:X:X>XW.G r t t w a U  X1X2X2X2X3X@Xb.z.b.z.z.z.z.z.t.t.t.r.e.",
"{.{.{.`.`.`.`.~.T.T.T.U.m.- ' N.$X:X:X:X:Xj.i w a h.c.z s P h W.1X1X1X2X:Xb.z.z.i.i.z.z.i.t.t.r.e.e.",
"{.{.`.`.`.`._.T.T.T.U.U.=.% ` N.$X%X:X:X'.q w w i >X:XL w e C f #X=X=X=X,Xz.z.z.i.t.i.t.t.t.t.r.e.e.",
"{.{.`.`.`.`.T.T.T.T.U.Y.m.% ` N.#X$XoX+XI w w w w (.:XT w w w w I =X=X=X,Xi.i.i.i.t.t.t.t.t.r.e.e.e.",
"{.`.`.`.F.H.T.T.T.Y.Y.L.M.& ^ 2.#XoXoX+Xq w w w w j.>Xs.i j H z 6 &X&X&X,Xz.i.i.t.t.e.7.r.e.e.e.e.e.",
"`.`.`.`.P.T.T.T.T.T.Y.L.A.W ^ <.|. XoX}.w f L T p.R.:X:X>X>X:Xs.t x._.F.v.l.i.t.t.t.e.0.r.r.e.e.e.e.",
"`.`.`.`.T.T.T.T.T.Y.Y.L.D.~ ! &.).|.|.[.w T :X:X>X>X>X:X:X>X,Xc.t g.p s d.k.i.t.t.t.r.r.r.r.e.e.e.e.",
"`.`.`.`.`.T.T.T.Y.Y.L.L.D.O * { ^.(.(.OXq L >X Xv.v.:X:XG h i r t x.u y R j.r.t.t.t.r.r.r.r.e.e.e.e.",
"`.`._._.`./.T.T.Y.Y.Y.L.P.= O @ F H x E U i a r w z :X>Xf w w w q j.e y P h.t.t.t.r.r.r.r.r.r.e.e.e.",
"`.`._._.T.T.T.T.Y.Y.L.L.L.! o @ Z x t p v.i w w w q >X>Xz w w w Y T r r P f.t.t.t.r.t.t.r.e.e.e.e.e.",
"`.`.T.`.T.T.T.L.T.Y.L.L.L._ . # S V r w L a.R w w e ,X:XL w w B R.q 7 7 P s.t.t.t.r.r.r.r.e.e.e.e.e.",
"`.`./.T.T.T.T.L.L.L.L.L.P.{   ! n J 0 e r T f.q w w U H a w K W.l 7 6 0 R a.t.r.r.r.r.r.r.e.e.e.e.e.",
"`.`.T.T.T.T.T.L.L.L.L.P.P.$.. Q # D d 9 0 0 J x.a.K l G T k.j.k 0 9 d V X.6.t.r.r.r.r.r.e.e.e.e.w.e.",
"_._.T.T.T.T.T.Y.Y.L.P.P.P.=.X Q W  .c 3 3 9 9 9 v Y o.o.Y v g g N N Z S ..r.r.r.r.r.r.r.e.e.e.e.w.e.",
"_././.T.T.Y.L.L.L.P.P.P.P.A.+ Q / } m c 4 4 4 5 5 M N b b m A A , ....1.r.r.r.r.r.r.e.e.r.e.e.e.w.w.",
"S.i.i.i.i.i.i.i.i.i.i.r.r.r.;.= / & )  .| D m n $ $ : , 2 [ -.3.4.4.4.4.4.4.4.3.4.4.4.3.3.3.>.3.>.>.",
"_./././.T.T.T.Y.Y.Y.L.L.L.P.P.P.B.%.` : ( [ @.;.:.i.F.S.i.i.i.i.i.i.i.i.i.i.i.r.i.r.r.r.r.r.r.r.r.r.",
"`._._././.T.T.T.Y.Y.Y.L.L.P.P.P.P.P.P.F.F.F.F.b.4.z.F.i.i.i.i.i.i.i.i.i.i.i.i.r.i.r.r.r.r.r.r.r.r.r.",
"`._._././.T.T.T.Y.Y.L.L.L.P.P.P.P.P.P.F.F.F.F.i.4.F.i.i.i.i.i.i.i.i.i.i.i.i.i.i.i.i.r.r.r.r.r.r.r.e.",
"_._./././.T.T.T.Y.Y.Y.L.P.P.P.P.P.F.P.F.F.F.F.i.3.i.i.i.i.i.i.i.i.i.i.i.i.i.i.i.i.i.r.r.r.r.r.r.r.r.",
"_._./././.Y.Y.Y.Y.Y.P.P.P.P.P.P.P.F.F.F.F.F.F.i.4.F.i.i.i.i.i.i.i.i.i.i.i.i.i.i.i.i.e.r.r.r.r.r.r.r.",
"_._./././././.Y.Y.Y.I.P.P.P.P.P.P.F.F.F.F.F.S.i.4.i.i.i.i.i.i.i.i.i.i.i.i.i.r.y.i.i.r.r.r.r.r.r.r.r.",
"_././././././.Y.Y.Y.L.P.P.P.P.P.P.F.F.F.F.F.F.i.3.C.i.i.i.i.i.i.i.i.i.i.i.i.i.i.i.r.r.r.r.r.r.r.r.r.",
"_._./././.T./.Y.Y.I.P.P.P.P.P.P.F.F.F.F.F.F.S.i.3.C.i.i.i.i.i.i.i.i.i.i.i.i.i.r.i.i.r.r.r.r.r.r.r.r.",
"/././././.T.T.Y.T.T.I.P.P.P.P.F.F.F.F.F.S.S.C.C.3.C.C.C.i.i.i.i.i.i.i.i.i.i.i.y.r.y.r.r.r.r.r.r.r.r.",
"/././././.I.I.I.I.T.I.P.P.P.P.F.F.F.F.F.S.S.C.C.3.C.i.i.i.i.y.i.i.i.i.i.i.i.r.r.r.y.r.e.r.r.r.r.r.r.",
"/./././.y.i.I.I.I.I.P.P.P.P.P.F.F.,.i.S.S.C.C.C.3.C.i.i.C.i.:.i.i.y.y.y.i.i.i.y.r.r.w.:.r.r.r.r.r.r.",
"/./././.I.I.I.I.I.P.P.P.P.P.P.P.F.F.F.S.S.C.C.i.3.i.i.i.i.C.i.i.u.y.y.i.i.u.y.i.i.r.r.r.r.r.r.r.r.r.",
"/./././.I.I.P.P.P.P.P.P.P.P.P.F.F.F.F.S.C.S.C.i.3.C.C.i.i.i.i.u.u.u.u.i.i.u.y.u.i.i.y.y.y.y.y.y.y.r.",
"/./././.I.P.P.P.P.P.P.P.D.P.D.S.S.S.S.S.S.C.C.C.3.C.C.C.C.i.u.u.u.u.i.i.u.u.u.u.u.y.u.y.y.y.y.y.y.y."
};
