/* XPM */
static char *bdfe24fa74224aea83cf90c481a373f7Gm0JhcQRO2oLUoGY[] = {
/* columns rows colors chars-per-pixel */
"50 50 119 2 ",
"   c #E70154",
".  c #E80154",
"X  c #E80857",
"o  c #E80B58",
"O  c #E8155C",
"+  c #E91961",
"@  c #EA2067",
"#  c #EB3373",
"$  c #DE4278",
"%  c #E04179",
"&  c #ED467E",
"*  c #ED487F",
"=  c #477597",
"-  c #487698",
";  c #EE5187",
":  c #C8708B",
">  c #D67E9A",
",  c #F2709E",
"<  c #F273A1",
"1  c #57809F",
"2  c #5786B8",
"3  c #6E91AB",
"4  c #7093AB",
"5  c #739BDA",
"6  c #4F90F9",
"7  c #5593F7",
"8  c #5894F7",
"9  c #5392F8",
"0  c #6696E3",
"q  c #6897E3",
"w  c #6B9AE6",
"e  c #6C9DEB",
"r  c #6FA0EF",
"t  c #7CA4E4",
"y  c #70A0EF",
"u  c #7FA7E8",
"i  c #7FA8EA",
"p  c #6FA1F0",
"a  c #6CBFF7",
"s  c #6BBFF8",
"d  c #A5A49F",
"f  c #A8A49B",
"g  c #97AEBF",
"h  c #98AFBF",
"j  c #A4A4A1",
"k  c #AEAAA3",
"l  c #B2ACA5",
"z  c #B4AFA9",
"x  c #BBB5AC",
"c  c #B8B7B3",
"v  c #B7B8B7",
"b  c #BBB9B5",
"n  c #B4B6B9",
"m  c #B6B9BA",
"M  c #BDBCBC",
"N  c #D095A6",
"B  c #D396A8",
"V  c #F48FB2",
"C  c #F59EBC",
"Z  c #C1BCB7",
"A  c #C3BEB9",
"S  c #C6C1BB",
"D  c #C9C4BE",
"F  c #8CA9D8",
"G  c #B5BAC2",
"H  c #80A8EA",
"J  c #92B2E5",
"K  c #F7B0CA",
"L  c #F8B4CC",
"P  c #BFC0C0",
"I  c #BFC4CE",
"U  c #BAC6D0",
"Y  c #85C6F3",
"T  c #95CCF1",
"R  c #A9C3ED",
"E  c #B4C8E7",
"W  c #BBCDEB",
"Q  c gray76",
"!  c #CBC6C1",
"~  c #CCC9C5",
"^  c #C1C6CD",
"/  c #C7CACE",
"(  c #CECECB",
")  c #D0CFCB",
"_  c #D2D1CD",
"`  c #C0C6D0",
"'  c #C5CBD3",
"]  c #CBCED2",
"[  c #C7D0D6",
"{  c #CED1D4",
"}  c #CFD6DA",
"|  c #D3D3D1",
" . c #D3D3D3",
".. c #D4D3D1",
"X. c #D7D6D3",
"o. c #D7D7D5",
"O. c #D8D8D7",
"+. c #D9D9D7",
"@. c #D2D8DC",
"#. c #D8D8D8",
"$. c #DADAD9",
"%. c #DCDCDB",
"&. c gray87",
"*. c #FACFDF",
"=. c #CCD6E8",
"-. c #C7DBEA",
";. c #CDDDE9",
":. c #DCDFE0",
">. c #D1DFE9",
",. c #FBD3E2",
"<. c #FBDAE6",
"1. c #FBDDE8",
"2. c #D6E1E7",
"3. c #E6E6E6",
"4. c #E8E6E5",
"5. c #FCEBF2",
"6. c #FDEDF2",
"7. c #FEF9FA",
"8. c #FEFDFD",
/* pixels */
"&.&.&.&.&.$.$.+.+.o.X.X... ._ _ _ _ ) ) %   .         . . $ ! ! ! ! ! D D D D D D D D D D D D D D D ",
"&.&.&.&.$.$.$.+.o.o.X.X.X. ._ _ _ _ ) ~ $   . X < ,   . . $ ! ! ! ! D D D D D D D D D D D D D D D D ",
"&.&.&.$.+.+.+.o.o.o.X.X. ._ _ _ _ ( ) ~ $   . O ,.*.O .   $ Z ! ! D D D D D D D D D S x D D D D D S ",
"&.&.%.$.k X.+.o.o.X.X.X._ _ _ _ ( f ) ~ $ X # * 1.<.& # X $ l ! D D D D D D D D D D S x S S D D S S ",
"&.&.$.$.+.o.o.o.o.X.X..._ _ _ _ ) ( ( ~ $ ; 7.8.8.8.8.7.; $ D D D D D D D D D D D D S S S S S S S S ",
"&.$.$.$.+.+.o.o.X.X.X..._ _ _ _ ) ( ( ~ $ @ V C 6.5.C V @ $ D D D D D D D D D D D S S S S S S S S S ",
"&.$.$.+.+.o.o.X.X.X.X..._ _ _ _ ) ( ( ~ $     O ,.*.O     $ D D D D D D S D D S S S S S S S S S S S ",
"$.$.$.+.o.o.o.X.X.X..._ _ _ _ ) ( ( ( ~ $   . o L K o . . $ D D D D D S S S S S S S S S S S S S S A ",
"$.$.$.+.o.o.o.X. ... ._ _ _ ) ) ( ( ~ ~ $       + +     . $ D D D D S S S S S S S S S S S S S S A A ",
"$.$.$.+.o.o.X.X. ... ._ _ _ ) ( ( ( ~ ~ B > > > : > > > > N D D D S S S S S S S S S S A S S S A Z Z ",
"$.$.$.o.o.X.X.X. . ._ _ _ _ ( ( ( ( ~ ~ ~ ~ ! ! z ~ ! ! ! ! ! D S S S S S S S S S S S S S A A A Z Z ",
"$.$.+.o.o.X. . . . ._ _ _ ) ( ( ( ~ ~ ~ ~ ~ ! ! l ~ ~ ! ! ! D D S S S S S S S S S S S S S A A Z Z Z ",
"$.$.$.o.o.{ J H H i i u u u u u u u u u u u u u 5 u u u u u u t t t t t t t t t t t t F A A A Z Z Z ",
"$.$.+.o.o.{ y 9 9 9 9 9 9 9 9 9 9 9 9 9 9 9 9 9 9 9 9 9 9 9 9 9 9 9 9 9 9 9 9 9 9 9 9 e M Z b b b c ",
"S S S S S M e 9 9 9 6 6 6 6 6 6 6 6 6 6 6 6 6 6 9 9 6 6 6 6 6 6 6 6 6 6 6 6 6 6 9 9 9 q k k k k k l ",
"o.$.o.o. .{ p 9 7 R W W W W W W W W W W W W W E 2 2 E W W W W W W W W W W W W W R 7 9 e M Z Z Z Z Z ",
"o.o.o.o.X.{ p 9 8 =.3.3.3.3.3.3.3.3.3.3.3.3.3.:.1 1 :.3.3.3.3.3.3.3.3.3.3.3.3.3.=.8 9 e M Z Z Z b Z ",
"o.o.o.o.X.{ p 9 8 =.3.3.3.3.3.3.3.3.3.3.3.3.3.:.1 1 :.3.3.3.3.3.3.3.3.3.3.3.3.3.=.8 9 e M Z Z Z b b ",
"o.o.o.o. .{ p 9 8 =.3.3.>.-.-.-.-.-.-.-.-.;.3.:.1 1 :.3.;.-.-.-.-.-.-.-.-.>.3.3.=.8 9 e M Z Z b b b ",
"o.o.o.o. .{ r 9 8 =.3.3.T a s s s s s s s Y 3.:.1 1 :.3.Y s s s s s s s a T 3.3.=.8 9 e M Z b b b b ",
"o.o.o.o. .] r 9 8 =.3.4.T a s s s s s s a Y 3.:.1 1 :.3.Y a s s s s s s a T 4.3.=.8 9 e M b b b b b ",
"o.o.o. . .] r 9 8 =.3.4.T a s s s s s s a Y 3.:.1 1 :.3.Y a s s s s s s a T 4.3.=.8 9 e M b b b b b ",
"o. . . . .] r 9 8 =.3.4.T a s s s s s s a Y 3.:.1 1 :.3.Y a s s s s s s a T 4.3.=.8 9 e M b b b c c ",
"o.o. . . .] r 9 8 =.3.4.T a s s s s s s a Y 3.:.1 1 :.3.Y a s s s s s s a T 4.3.=.8 9 w M b b c c c ",
" . . . .Q ^ r 9 8 =.3.4.T a s s s s s s a Y 3.:.1 1 :.3.Y a s s s s s s a T 4.3.=.8 9 w m b b c c c ",
" . . . ./ ' e 9 8 =.3.4.T a s s s s s s a Y 3.:.1 1 :.3.Y a s s s s s s a T 4.3.=.8 9 w m b c c c c ",
" . . . .( ] e 9 8 =.3.4.T a a a a a a a a Y 3.:.1 1 :.3.Y a a a a a a a a T 4.3.=.8 9 w m b c c c c ",
" . . . . .] e 9 8 =.3.4.T a a a a a a a a Y 3.:.1 1 :.3.Y a a a a a a a a T 4.3.=.8 9 e m b c c c c ",
" . . . . .] e 9 8 =.3.3.2.>.>.>.>.>.>.>.>.2.3.:.1 1 :.3.2.>.>.>.>.>.>.>.>.2.3.3.=.8 9 w n b b c c c ",
" . . . .( ' r 9 8 =.3.3.3.3.3.3.3.3.3.3.3.3.3.:.1 1 :.3.3.3.3.3.3.3.3.3.3.3.3.3.=.8 9 e n c c c c c ",
" . .(  .( ' r 9 8 =.3.3.3.3.3.3.3.3.3.3.3.3.3.:.1 1 :.3.3.3.3.3.3.3.3.3.3.3.3.3.=.8 9 e n c c c c c ",
" . .( ( ( / e 9 8 =.3.3.3.3.3.3.3.3.3.3.3.3.3.:.1 1 :.3.3.3.3.3.3.3.3.3.3.3.3.3.=.8 9 e n v c c c c ",
" .] ( ( ( / r 9 8 =.3.3.3.3.3.3.3.3.3.3.3.} U :.1 1 :.U } 3.3.3.3.3.3.3.3.3.3.3.=.8 9 e n c c c c c ",
"{ ] ( ( ( ' r 9 8 =.3.3.3.3.3.3.3.3.3.3.3.4 = [ 1 1 [ = 4 3.3.3.3.3.3.3.3.3.3.3.=.8 9 e n n c c c c ",
"{ ] ] ( ( / e 9 8 =.3.3.3.3.3.3.3.3.3.3.3.3 - ' 1 1 ' - 3 3.3.3.3.3.3.3.3.3.3.3.=.8 9 e n c c c c c ",
"P M M M M M e 9 8 =.3.3.3.3.3.3.3.3.3.3.3.3 - ' 1 1 ' - 3 3.3.3.3.3.3.3.3.3.3.3.=.8 9 0 j d d d d d ",
"{ ] ] ] ( ' e 9 8 =.3.3.3.3.3.3.3.3.3.3.3.3 - ' 1 1 ' - 3 3.3.3.3.3.3.3.3.3.3.3.=.8 7 e m v v v v c ",
" .{  .] ] ' e 9 8 =.3.3.3.3.3.3.3.3.3.3.3.g 3 @.1 1 @.3 h 3.3.3.3.3.3.3.3.3.3.3.=.8 9 w n n n n c c ",
" .{ { ] ] ' e 9 8 =.3.3.3.3.3.3.3.3.3.3.3.3.3.:.1 1 :.3.3.3.3.3.3.3.3.3.3.3.3.3.=.8 9 w n n n n c c ",
"{ { ] ] ] ' e 9 8 =.3.3.3.3.3.3.3.3.3.3.3.3.3.:.1 1 :.3.3.3.3.3.3.3.3.3.3.3.3.3.=.8 9 e n n n n n c ",
"{ { ] ] ] ' e 9 8 =.3.3.3.3.3.3.3.3.3.3.3.3.3.:.1 1 :.3.3.3.3.3.3.3.3.3.3.3.3.3.=.8 9 e n n n n n c ",
"{ { ] ] ] ' e 9 8 =.3.3.3.3.3.3.3.3.3.3.3.3.3.:.1 1 :.3.3.3.3.3.3.3.3.3.3.3.3.3.=.8 9 e n n n n n n ",
"{ ] ] ] ] ' r 9 8 =.3.3.3.3.3.3.3.3.3.3.3.3.3.:.1 1 :.3.3.3.3.3.3.3.3.3.3.3.3.3.=.8 9 e n n n n n n ",
"{ { ] ] ] ' r 9 8 =.3.3.3.3.3.3.3.3.3.3.3.3.3.:.1 1 :.3.3.3.3.3.3.3.3.3.3.3.3.3.=.8 9 e n n n n n n ",
"] ] ] ] ] ' e 9 8 =.3.3.3.3.3.3.3.3.3.3.3.3.3.:.1 1 :.3.3.3.3.3.3.3.3.3.3.3.3.3.=.8 7 w n n c n n v ",
"] ] ] ] ] ^ e 9 8 =.3.3.3.3.3.3.3.3.3.3.3.3.3.:.1 1 :.3.3.3.3.3.3.3.3.3.3.3.3.3.=.8 7 w n n n n v n ",
"] ] ] ] n G e 9 8 =.3.3.3.3.3.3.3.3.3.3.3.3.3.:.1 1 :.3.3.3.3.3.3.3.3.3.3.3.3.3.=.8 7 w n n n n n n ",
"] ] ] ] / ^ e 9 8 =.3.3.3.3.3.3.3.3.3.3.3.3.3.:.1 1 :.3.3.3.3.3.3.3.3.3.3.3.3.3.=.8 9 e n n n n v n ",
"] ] ] ] / ` e 9 8 =.3.3.3.3.3.3.3.3.3.3.3.3.3.:.1 1 :.3.3.3.3.3.3.3.3.3.3.3.3.3.=.8 9 e n n n n n n ",
"] ] ] ' / I e 7 8 =.3.3.3.3.3.3.3.3.3.3.3.3.3.:.1 1 :.3.3.3.3.3.3.3.3.3.3.3.3.3.=.8 7 w n n n n n n "
};
