/* XPM */
static char *_379075d480148b79389444adb02c424lNp9wLjzWQaDaHv1[] = {
/* columns rows colors chars-per-pixel */
"50 50 66 1 ",
"  c gray59",
". c #9E9D9B",
"X c #A3A39F",
"o c #A8A49C",
"O c #9C9EA2",
"+ c #9FA1A4",
"@ c #A4A4A2",
"# c #A8A7A3",
"$ c #ACA9A3",
"% c #ADADAA",
"& c #B1ADA5",
"* c #B0AFAA",
"= c #B5B2AB",
"- c #B9B5AD",
"; c #B6B6B4",
": c #B8B7B3",
"> c #B7B8B7",
", c #BBBAB6",
"< c #B6B7B9",
"1 c #B7B8BC",
"2 c #BBBBBB",
"3 c #C1BCB7",
"4 c #C2BEB9",
"5 c #C5C1BC",
"6 c #C9C4BE",
"7 c #BDBEC1",
"8 c #BFC0C3",
"9 c #C6C5C1",
"0 c #C4C4C3",
"q c #CBC7C3",
"w c #CCC7C1",
"e c #C8C7C4",
"r c #CBC8C3",
"t c #CCC9C3",
"y c #CBC9C4",
"u c #C9C8C6",
"i c #CBCAC7",
"p c #CDCBC7",
"a c #CECCC7",
"s c #C4C6C9",
"d c #C6C9CC",
"f c #CCCBC8",
"g c #CFCECA",
"h c #CBCCCC",
"j c #CFCECC",
"k c #D0CDC7",
"l c #D0CFCB",
"z c #D0CFCC",
"x c #D1D0CC",
"c c #D3D2CF",
"v c #D4D3CF",
"b c #CBCED1",
"n c #CFD0D3",
"m c #D1D1D0",
"M c #D3D3D2",
"N c LightGray",
"B c #D4D3D1",
"V c #D4D4D2",
"C c #D7D6D3",
"Z c gray83",
"A c #D7D7D5",
"S c #D7D7D6",
"D c #D9D9D7",
"F c #DADAD9",
"G c #DCDCDB",
"H c gray87",
/* pixels */
"HHHHHFFDAACCCBvcccllggar=gaappttqqq666666666666666",
"HHHHFFFDAACCCMcccclgggaq-lappttqqq6666666666666666",
"HHHFDDDAAACBMccccglgggar-kpptt46q6666666665-666665",
"HHGF$CDAACCCvcccgolggaar=apptq&q66666666665-556555",
"HHFFDAAAACCBvccllggggapt=ppttwq6666666666655556555",
"HFFFDDAACCCBcccclggggapt=ppptqq6666666666555555555",
"HFFDDAACCCCvcccclgggaapt=ppptq66666656655555555555",
"FFFDAAACCCBvccclggggpppq=ppprq66666555665555555554",
"FFFDAAACCBMcccllggappppq=pprrqq6666555665555555544",
"FFFDAACCCMMccclgggapyypr=pprqq66655565655554555444",
"FFFAACCCMMccccggggpyyyyr=prrqqq6556655555555544444",
"FFDAACCCMMccclgggppyyyrr&pyrqq66555555555555544443",
"FFFAACMMMMccllgggpyyyyyr&yrqqq96655555555555444433",
"FFDACCMMMMcclggggpyyyyyy$rqrq96656555555554333,,,-",
"5555544222,,,-::-=======o===&&&$$$$o$$&&&$$o$$$$&&",
"AFAACMMMMcczjjggpyyyyy9q*9q99666655555555554444433",
"AAAAMMMMcczjjjggppyyey99$99966956555555554444444,3",
"AAAAMMMcccjjjjgfyyyyqq99$99955555555555554444444,,",
"AAAAMMMcccjjjjgfpyyy9999*99955555555555544444443,,",
"AAAMMMMccjjjjgffyyyy9999$9995555555555544444443,,,",
"AAAAMMMccjjjgggyyyyee995$99555555555555544444,,,::",
"AAAMMMMcjjjggggyyyye9995$95555555455454422442,,,::",
"AMMMMMnjjjggghiiyyeee995$9555555442245442,2,,,,,::",
"AAMMMMjjjjghhhiiyyee9995#95555554222222,2,,,,,,:::",
"MMMM9yjjjjjhyyiiy*999005#95555$5442222,,,,;$,,,:::",
"MMMMyjjjjjhhyyiyy2e00050#99555,2422222,,,,,-,,::::",
"MMMMjjjjjjhiyyyyee999005#9055222222,222,,,,,,,::;;",
"MMMMnjjjjhiiyyyyee000094$955522242222,,,,,,,,,:::;",
"MMnnnbjjhhiiyyyee9999955#95522222222,,,,,,,,,:::;;",
"MMMnbjjjhhiiyyyee9990057#9552222222,,2,,,,,,,:::;;",
"MMbMjjjyhhyyyyeee9990057#55522222222,,,,,,,,::;;;;",
"MMjjjjjyhyyysseee0000552#55422222222,22,,,,,,:;;;;",
"MMjjjjjyyyiiieeee0095522#7222222222222,,,,,,;;;;;;",
"nnjjjjjhhyyssee009990572@722222222,2,,,,,,,>;;;;;;",
"nbbjjjyyyyyseeees0000872#522222222222,,,,>;;;;;;;;",
"82222222222>;;;;;;;;=;==X%%%%%$$$$$$$@@#######X###",
"nbbbjjhhhhhyyeeees9s0099$9882222222222222222,,,,;;",
"Mnnbbjjhhhhhyseeeees0995$98222222222222,22,,,;;;;;",
"Mnnbbjhhhhhhyseeee000002$972222222222222222,;;;;;;",
"nnbbbjjhhhhhysssese00002@822222222222222222>;;;;;;",
"nnbbbhhhhhddssssess00502@722222222222222<,22;;;;;;",
"nnbbbbbhhhdsssss0sss9972@222222222222222><2>;;;;;;",
"nbbbbbbhhhyyssssssss9072@722222222222222>>>;;;;;;;",
"nnbbbhbhhdyysssssss98772@77222222222222<>>;;;;;;;;",
"bbbbbhhhhhdysss9sss98877@7772222222222<<22;;;;;;;;",
"bbbbbddddhdssss99ss98872@77722<222222;<<22;;;;;;;;",
"bbbb<2ddddsssss9sO288772@72272 22>>>2>2>22;.;;;;;;",
"bbbbdddddssssssssss88772@2222722111211>222<<<<<;>;",
"bbbbddsdssssssssss887872@7722221111221<122><<<<<<;",
"bbbddsdsssss8s8888888777+7777211111111111>11<<<<<<"
};
