/* XPM */
static char *b894e7103f4d4f5b9b0fe883224eb605zxix2k6e3IwXJBJ8[] = {
/* columns rows colors chars-per-pixel */
"50 50 185 2 ",
"   c #331F17",
".  c #331F18",
"X  c #342018",
"o  c #38241A",
"O  c #3D2A22",
"+  c #412F27",
"@  c #483220",
"#  c #433129",
"$  c #573F27",
"%  c #5C432C",
"&  c #54443D",
"*  c #60482F",
"=  c #6A5131",
"-  c #7B6039",
";  c #3F545B",
":  c #6E6059",
">  c #485C63",
",  c #4B626B",
"<  c #57686E",
"1  c #556B72",
"2  c #59747C",
"3  c #81673C",
"4  c #877C76",
"5  c #A4854D",
"6  c #AC8D53",
"7  c #B79757",
"8  c #A18F72",
"9  c #E0B968",
"0  c #E6C06C",
"q  c #EBC46D",
"w  c #F0C76F",
"e  c #EFCC7A",
"r  c #F5CE77",
"t  c #FACE73",
"y  c #F3CD7C",
"u  c #FDD175",
"i  c #F6D07B",
"p  c #F9D17A",
"a  c #557589",
"s  c #5D7D90",
"d  c #637E86",
"f  c #718087",
"g  c #78868B",
"h  c #7B898E",
"j  c #698C98",
"k  c #6F949A",
"l  c #75959B",
"z  c #6793BA",
"x  c #6B95B9",
"c  c #6D99BE",
"v  c #7297B4",
"b  c #719DC0",
"n  c #7FABC9",
"m  c #968E88",
"M  c #9A918C",
"N  c #859195",
"B  c #8A9497",
"V  c #8F9A9D",
"C  c #919C9F",
"Z  c #9E9D9B",
"A  c #A1988F",
"S  c #A29A94",
"D  c #A7A49D",
"F  c #B8AF9D",
"G  c #989FA2",
"H  c #9FA3A6",
"J  c #86A6B9",
"K  c #A4A4A2",
"L  c #AAA7A2",
"P  c #ADA9A3",
"I  c #A5AAAC",
"U  c #B1ACA3",
"Y  c #B6B2AB",
"T  c #B9B5AE",
"R  c #ACB1B3",
"E  c #A6BEBE",
"W  c #B6B6B5",
"Q  c #B8B7B3",
"!  c #B7B8B7",
"~  c #BBBAB6",
"^  c #B6B7B9",
"/  c #B7B8BB",
"(  c #BBBBBA",
")  c #C3B595",
"_  c #C1BCB6",
"`  c #C2BEB9",
"'  c #D7C49D",
"]  c #DFD697",
"[  c #E2C780",
"{  c #EBCB8A",
"}  c #E4CC97",
"|  c #E4D395",
" . c #D2C2A1",
".. c #D7CCAA",
"X. c #D8D1A4",
"o. c #CCC6B6",
"O. c #C6C1BC",
"+. c #C9C4BE",
"@. c #CDC9BE",
"#. c #D0C7B4",
"$. c #E6D9A5",
"%. c #DFE0B8",
"&. c #82AECA",
"*. c #85B0CC",
"=. c #8AB6CF",
"-. c #8CB8D0",
";. c #BDBDC1",
":. c #AEC5C4",
">. c #BFC1C2",
",. c #B8C6C5",
"<. c #BCCCCB",
"1. c #BBD0CE",
"2. c #AADAD6",
"3. c #ACDBD4",
"4. c #B2D5D4",
"5. c #BCD2D1",
"6. c #B1DBD3",
"7. c #B3DCDD",
"8. c #9EE3DF",
"9. c #A5E1DE",
"0. c #ACDFE2",
"q. c #B0DCE5",
"w. c #9DE7E3",
"e. c #9FE8E4",
"r. c #A0E5E2",
"t. c #ABE7E7",
"y. c #A4E9E5",
"u. c #A9E6E9",
"i. c #ABE8EB",
"p. c #B8E3E4",
"a. c #BCE7EB",
"s. c #B2EBE9",
"d. c #BDEDED",
"f. c #BFF1F2",
"g. c #C3C4C4",
"h. c #CAC6C1",
"j. c #C6C9C7",
"k. c #CCCAC5",
"l. c #C4C6C9",
"z. c #C5CACC",
"x. c #CECDC9",
"c. c #CFCECA",
"v. c #CCCCCC",
"b. c #CFCECC",
"n. c #D0CDC7",
"m. c #D0CFCB",
"M. c #D0CFCD",
"N. c #C2D0CE",
"B. c #D3DEC7",
"V. c #D1D0CC",
"C. c #D3D2CE",
"Z. c #D4D3CF",
"A. c #CCCED1",
"S. c #C3D3D2",
"D. c #CED0D3",
"F. c #C6D9D7",
"G. c #C6DBDA",
"H. c #C8DCDB",
"J. c #D3D3D3",
"K. c #D4D3D0",
"L. c #D6D5D2",
"P. c #D7D7D5",
"I. c #D7D7D7",
"U. c #D8D8D6",
"Y. c #DADAD9",
"T. c #DCDCDD",
"R. c gray87",
"E. c #C6E0DF",
"W. c #C6E3E3",
"Q. c #C9E3E2",
"!. c #C7E8E7",
"~. c #C8E8E7",
"^. c #C4EBEB",
"/. c #C8EBEA",
"(. c #C1F0ED",
"). c #C8F1EF",
"_. c #C0ECF0",
"`. c #C6F3F4",
"'. c #C9F5F5",
"]. c #CCF8F8",
"[. c #E1E1E1",
"{. c #E1F7F6",
"}. c #ECFAF9",
"|. c #F1FBFB",
" X c #FCFEFE",
/* pixels */
"R.R.R.R.R.Y.Y.U.U.P.L.L.L.K.Z.C.C.C.m.m.c.c.c.h.Y c.c.c.k.k.h.h.h.h.h.+.+.+.+.+.+.+.+.+.+.+.+.+.+.+.",
"R.R.R.R.Y.Y.Y.U.P.P.L.L.L.K.C.C.C.C.m.c.c.c.c.h.T n.c.k.k.h.h.h.h.h.+.+.+.+.+.+.+.+.+.+.+.+.+.+.+.+.",
"R.R.R.Y.U.U.U.P.P.P.L.L.K.C.C.C.C.c.m.c.c.c.c.h.T n.k.k.k.h.` h.h.+.+.+.+.+.+.+.+.+.O.T +.+.+.+.+.O.",
"R.R.R.Y.P L.U.P.P.L.L.L.Z.C.C.C.c.D m.c.c.c.c.h.Y c.k.k.k.h.U h.+.+.+.+.+.+.+.+.+.+.O.T O.O.+.+.O.O.",
"R.R.Y.Y.U.P.P.P.P.L.L.K.Z.C.C.M.m.c.c.c.c.c.k.h.Y k.k.h.h.h.h.+.+.+.+.+.+.+.+.+.+.+.O.O.O.O.O.O.O.O.",
"R.Y.Y.Y.U.U.P.P.L.L.L.K.C.C.C.C.m.c.c.c.c.c.k.h.Y k.k.k.h.h.h.+.+.+.+.+.+.+.+.+.+.O.O.O.O.O.O.O.O.O.",
"R.Y.Y.U.U.P.P.L.L.L.L.C.C.C.C.C.m.c.c.c.c.c.k.h.Y k.k.k.h.h.+.+.+.+.+.+.O.+.+.O.O.O.O.O.O.O.O.O.O.O.",
"Y.Y.Y.U.P.P.P.L.L.L.K.Z.C.C.C.m.c.c.c.c.k.k.k.h.L _ +.h.h.h.+.+.+.+.+.O.O.O.O.O.O.O.O.O.O.O.O.O.O.` ",
"Y.Y.Y.U.P.P.P.L.L.K.K.C.C.C.m.m.c.c.c.c.k.k.S : # + & : 4 m M 4 P O.O.O.+.+.O.O.O.O.O.O.O.O.O.O.` ` ",
"Y.Y.Y.U.P.P.L.L.L.K.J.C.C.C.m.c.c.c.c.k.h.T O X         .       S O.O.O.+.O.O.O.O.O.O.` O.O.O.` ` ` ",
"Y.Y.Y.P.P.L.L.L.J.J.C.C.C.C.c.c.c.c.c.h.h.M X .               # T O.O.O.O.O.O.O.O.O.O.O.O.` ` ` ` ` ",
"Y.Y.U.P.P.L.J.L.J.J.C.C.C.m.c.c.c.k.c.h.h.m X     = 5 - $ @ % A O.O.O.O.O.O.O.O.O.O.O.O.O.` ` ` ` _ ",
"Y.Y.Y.P.P.L.J.J.J.J.C.C.m.m.c.c.c.k.h.h.h.S o 3 o 9 u u t q y o.O.O.O.O.O.O.O.O.O.O.O.O.` ` ` ` _ _ ",
"Y.Y.U.P.P.J.J.J.J.J.C.C.m.c.c.c.c.k.h.h.h.Y * r % q q u u 0 p o.O.O.O.O.O.O.O.O.O.O.` _ _ _ ~ ~ ~ Q ",
"O.O.O.O.O.` ` ` ( ( ~ ~ ~ T Q Q T Y Y Y Y Y 8 u t u 6 u u 5 i F P P P P P P P U U P P D P P P P P U ",
"P.Y.P.P.J.J.J.J.J.C.C.M.b.b.c.c.k.h.h.h.h.h.X.u u u u u u u y o.O.O.O.O.O.O.O.O.O.O.O.` ` ` ` ` _ _ ",
"P.P.P.P.J.J.J.C.C.C.M.b.b.b.c.c.k.c.h.h.h.h.#.u u u w 7 7 t { O.O.O.O.O.O.O.O.O.O.` ` ` ` ` ` ` ~ _ ",
"P.P.P.P.J.J.J.C.C.C.b.b.b.b.c.c.k.k.h.h.h.h.g.} u u u p p p #.O.O.O.O.O.O.O.O.O.O.` ` ` ` ` ` ` ~ ~ ",
"P.P.P.J.J.J.J.C.C.C.b.b.b.b.c.c.c.k.h.h.h.h.g.g.) p u u } o.O.O.O.O.O.O.O.O.O.O.` ` ` ` ` ` ` _ ~ ~ ",
"P.P.P.J.J.J.J.C.C.b.b.b.b.c.c.c.k.k.h.h.h.N.H.W.J [ p e E ~.F.O.O.O.O.O.O.O.O.` ` ` ` ` ` ` _ ~ ~ ~ ",
"P.P.P.P.J.J.J.C.C.b.b.b.b.b.b.k.k.h.h.h.Q.'.'.'.*.x v v &.'.'.z.O.O.O.O.O.O.O.O.` ` ` ` ` ~ ~ ~ ~ ~ ",
"P.P.P.J.J.J.J.C.b.b.b.c.b.v.b.k.k.h.k.~.'.Q.~.'.a.b z z q.'.'.z.O.` O.O.` O.` ` ( ( ` ` ( ~ ~ ~ ~ ~ ",
"P.P.J.J.J.J.D.b.b.b.c.c.b.v.k.k.k.k.Q.'.H.g.E.'.'.=.z c _.'.'.S.` ` ( ( ` O.` ` ( ~ ( ~ ~ ~ ~ ~ ~ ~ ",
"P.P.J.J.J.J.b.b.b.b.c.b.v.v.k.k.k.F.'.Q.g.g.G.'.'.-.z c _.'.'.E.( ( ( ( ( ( ( ( ( ~ ~ ~ ~ ~ ~ ~ ~ Q ",
"P.J.J.J.g.h.b.b.b.b.b.v.k.k.k.k.h.W.'.j.g.g.G.'.'.-.z c _.'.'./.O.( ( ( ( ( ~ ( ~ ~ W P ~ ~ ~ Q Q Q ",
"J.J.J.J.j.b.b.b.b.b.b.b.k.k.k.k.b.'.E.g.g.g.G.'.'.-.z c _.'.'.'.N.( ( ( ( ( ~ ~ ~ ~ ~ T ~ ~ Q Q W Q ",
"J.J.J.J.b.b.b.b.b.v.v.k.k.k.k.k.H.'.z.g.g.g.G.'.'.=.z c _.'.'.'.!.( ( ( ( ( ( ~ ~ ~ ~ ~ ~ ~ Q Q W W ",
"J.J.J.J.J.b.b.b.v.v.k.k.k.k.j.@.$.%.g.g.g.g.E.'.'.=.z c _.'.'.!.'.S.( ( ( ~ ~ ~ ~ ~ ~ ~ ~ ~ Q Q Q W ",
"J.J.D.D.J.A.b.b.b.k.k.k.k.h.z.| u p ..g.g.g.W.'.'.*.z c _.'.'.S.^./.>.( ~ ~ ~ ~ ~ ~ ~ ~ ~ ~ ~ Q W W ",
"J.J.D.D.A.b.b.b.b.b.k.k.5.1.4.X.p ] 1.g.g.g.~.'.'.n z c _.'.'.z.l.'.B. .~ ( ~ ~ ~ ~ ~ ~ ~ Q Q Q W W ",
"J.J.A.J.b.b.b.k.b.b.k.z.w.w.w.9.6.3.4.<.g.g.).'.'.j a s a.'.'.N.( ..p { ' ~ ~ ~ ~ ~ ~ ~ ~ Q W W W W ",
"J.J.b.b.b.b.b.k.k.k.k.5.w.w.w.s.s.w.w.w.2.l.'.'.'.2 , 1 a.'.'.N.( ' p { ~ ( ( ~ ~ ~ ~ ~ ~ Q W W W W ",
"J.J.b.b.b.b.b.k.k.k.k.4.w.e.d.}.}.y.w.w.2.z.'.'.`.l j k ^.'.'.N.( _  . ._ ( ~ ~ ~ ~ ~ ~ W W W W W W ",
"D.D.b.b.b.b.b.v.v.k.j.2.w.y.|. X X{.e.w.3.F.'.'.`.i.u.i.`.'.'.N.( ( ~ ( ( ( ~ ~ ~ ~ ~ ~ W W W W W W ",
"D.A.A.b.b.b.k.k.k.j.j.9.w.w.t. X{.(.w.w.4.W.'.'.`.u.u.i.`.'.'.N.( ( ( ( ( ~ ~ ~ ~ ~ W W W W W W W W ",
">.( ( ( ( ( ( ( ( ( ( 2.8.w.y.).s.w.w.w.:.^.'.'.f.u.u.i.`.'.'.,.L L L L L L L K K K K K K K D K K K ",
"D.A.A.A.b.b.b.v.v.v.v.b.z.5.4.2.9.r.w.r.5.'.'.'.d.u.u.u.`.'.'.S.( ( ( ( ( ( ( ( ( ( ( ( ~ ~ ~ ~ W W ",
"J.D.D.A.A.b.b.b.v.v.v.b.k.g.g.g.g.l.<.<.S.'.].'.p.0.t.u.s.7.'.S.( ( ( ( ( ( ( ~ ( ( ~ ~ ~ W W W W W ",
"J.D.D.A.A.b.b.b.v.v.b.b.k.j.g.g.g.g.g.l.g.C d :.^ g.( >.,., l <.( ( ( ( ( ( ( ( ( ( ( ~ W W W W W W ",
"D.D.A.A.A.b.b.b.v.v.b.b.j.j.j.j.g.g.g.g.;.2 1 ( K ( ( ( ^ , f ( ( ( ( ( ( ( ( ( ( ( ( ( W W W W W W ",
"D.D.A.A.A.v.v.v.v.v.z.j.j.j.j.j.g.g.g.g.I , h ( K ( ( ( R , g ( ( ( ( ( ( ( ( ( W ( ( ( W W W W W W ",
"D.D.A.A.A.A.v.v.v.v.z.j.j.j.j.j.g.g.g.g.f , W ( K ( ( ( I , N ( ( ( ( ( ( ( ( ( ^ ^ ^ ! W W W W W W ",
"D.A.A.A.A.A.A.v.v.v.j.j.j.j.j.j.g.g.g.H , h ;.( K ;.( ( V , G ( ( ( ( ( ( ( ( ( ( ( ~ W W W W W W W ",
"D.D.A.A.A.A.A.v.v.v.j.j.j.j.j.j.l.g.R > , R ;.( K ;.( ( g , R ( ( ( ( ( ( ( ( ( ~ ~ W W W W W W W W ",
"A.A.A.A.A.A.b.b.b.b.l.l.j.j.j.j.g.g.>.g ; 1 ;.A.g.J.J.b.< ; < B j.g.g.;.( ( ! ( ( ( ! W W W W W W ! ",
"A.A.A.A.A.z.z.z.z.b.l.l.j.j.j.A.R.R.[.[.;.h R [.[.[.[.R.V N N G R.[.[.[.R.Y.g.( ( ( ! W W W W W ! ! ",
"A.A.A.A.^ ;.z.z.z.l.l.j.j.j.j.g.j.W b.A.D.J.J.J.k.P.P.P.P.P.b.J.A.b.k.j.g.( ^ ^ ( ( W Z W W W W W ! ",
"A.A.A.A.z.z.z.l.l.l.l.j.j.j.g.g.g.g.g.>.>.;.;.( K ( ( ( ( ;.( ( ( ( ( ( / / ^ ( ( ( ! ! ! W W W ^ ! ",
"A.A.A.A.z.z.l.l.l.l.j.l.l.l.l.g.g.g.>.>.;.>.;.;.K ;.;.( ( ( ( ( ( ( / / / / / / ( ( ^ ! ! ! ! ! ! ! ",
"A.A.A.z.z.l.l.l.l.l.l.l.>.l.>.>.>.>.>.>.>.;.;.;.H ;.;.;.;.( / / / / ( ( / / / / / / / / ! ! ! ! ! ! "
};
