/* XPM */
static char *_bcd14e88c384e719456677f84ef8b78Y6SFwFAd4gjoThEf[] = {
/* columns rows colors chars-per-pixel */
"50 50 167 2 ",
"   c #2B2F36",
".  c #2D3137",
"X  c #2F3339",
"o  c #31363C",
"O  c #373A3F",
"+  c #373B42",
"@  c #393E45",
"#  c #3B4147",
"$  c #36414A",
"%  c #3C444B",
"&  c #3E4A54",
"*  c #41474E",
"=  c #43494F",
"-  c #444C54",
";  c #4A4E54",
":  c #454D5A",
">  c #4A5057",
",  c #47515D",
"<  c #4C535B",
"1  c #525556",
"2  c #51565C",
"3  c #51585F",
"4  c #5A5C5D",
"5  c #4C5562",
"6  c #4E5866",
"7  c #4F5A69",
"8  c #545C64",
"9  c #595F64",
"0  c #535D6B",
"q  c #576065",
"w  c #5C6165",
"e  c #56606D",
"r  c #5B636B",
"t  c #5E696F",
"y  c #566272",
"u  c #5A6573",
"i  c #5E6975",
"p  c #596779",
"a  c #5D6A7A",
"s  c #626667",
"d  c #61676B",
"f  c #636A6C",
"g  c #696D6E",
"h  c #636B73",
"j  c #696F71",
"k  c #636D7B",
"l  c #657077",
"z  c #6D7274",
"x  c #66717A",
"c  c #6B747B",
"v  c #717576",
"b  c #717779",
"n  c #747A7C",
"m  c #797D7E",
"M  c #606E80",
"N  c #647181",
"B  c #6B7581",
"V  c #6D7982",
"C  c #747C83",
"Z  c #797F81",
"A  c #747E89",
"S  c #6E818C",
"D  c #748086",
"F  c #7D8284",
"G  c #74838D",
"H  c #7E8589",
"J  c #758791",
"K  c #7C8693",
"L  c #758994",
"P  c #818586",
"I  c #858887",
"U  c #8B8A85",
"Y  c #818689",
"T  c #858A8C",
"R  c #8A8D8C",
"E  c #8F918F",
"W  c #94948E",
"Q  c #858D91",
"!  c #898E91",
"~  c #8C9294",
"^  c #8E9499",
"/  c #939594",
"(  c #999792",
")  c #969896",
"_  c #9B9B95",
"`  c #919799",
"'  c #939A9D",
"]  c #9C9E9B",
"[  c #A19F96",
"{  c #9FA09D",
"}  c #A4A095",
"|  c #A4A39C",
" . c #A9A79E",
".. c #AAA89F",
"X. c #8399A4",
"o. c #959DA1",
"O. c #999EA1",
"+. c #96A0A3",
"@. c #9DA2A3",
"#. c #9FA6AA",
"$. c #9FABAE",
"%. c #A2A5A5",
"&. c #A8A7A2",
"*. c #A7A9A4",
"=. c #ACABA3",
"-. c #A2A6A9",
";. c #A5AAAB",
":. c #AAADAD",
">. c #B2AFA6",
",. c #B0AFAD",
"<. c #B3B0A5",
"1. c #B5B3AD",
"2. c #B8B5AC",
"3. c #BBB8AF",
"4. c #A7ACB0",
"5. c #AAAFB1",
"6. c #ADB2B4",
"7. c #AEB6BA",
"8. c #AEB9BA",
"9. c #B2B5B5",
"0. c #B8B7B0",
"q. c #B7B9B7",
"w. c #BCBBB4",
"e. c #B1B6B9",
"r. c #B5BABC",
"t. c #B9BDBE",
"y. c #C1BFB6",
"u. c #C4C3BB",
"i. c #CAC6BD",
"p. c #CAC6BE",
"a. c #B7BFC0",
"s. c #B5BEC3",
"d. c #BABFC2",
"f. c #B6C0C7",
"g. c #B9C1C2",
"h. c #BCC1C3",
"j. c #BAC2C4",
"k. c #BCC3C4",
"l. c #B4C2CB",
"z. c #B8C5C9",
"x. c #BFC5C9",
"c. c #BFC8C9",
"v. c #C2C3C2",
"b. c #C2C4C1",
"n. c #C5C7C2",
"m. c #C5C6C5",
"M. c #CAC8C2",
"N. c #CDC9C1",
"B. c #C4C9C9",
"V. c #C1CACC",
"C. c #C4CCCE",
"Z. c #CBCECB",
"A. c #CFCDC9",
"S. c #D3CFC6",
"D. c #D3D0C7",
"F. c #D1D1CE",
"G. c #D4D3CF",
"H. c #D9D5CC",
"J. c #D8D7CF",
"K. c #C3CDD2",
"L. c #C6CFD0",
"P. c #C4CED3",
"I. c #C5D0D3",
"U. c #C9D0D1",
"Y. c #C8D1D4",
"T. c #C3D1DB",
"R. c white",
/* pixels */
"R.c 9 d s z z g z n z I U y.p.y.S.J.p.M.=.Z.w.2.u.y.2.w.| l.e.-.6.;.@.%.~ -.T R |  ...=.| >.=.} | ( ",
"R.n w j d z c z b F n R R u.N.u.D.J.M.A.,.8.w.2.p.u.0.u.=.T.d.4.r.6.-.;.` ;.T R ] | | =.| <.>.|  ._ ",
"R.n w g d z z j b n v P P | :.&.0.w.1.9.' $.q.0.n.v.9.u.*.f.#.^ o.` ~ ^ H ^ T I ) _ _ _ W | [ ( [ W ",
"R.n d z j z b z n Z v T P z C m T ^ ! Q c m.V.a.Y.I.j.P.6.F.A i k i u u 0 y T T ) _ _ ] W | [ W _ W ",
"R.n d z j c b z n F b P m h z b Y ! T Y c v.j.r.C.U.k.P.6.A.A h k i y u 8 y Y P / / _ _ ( | _ W ( W ",
"R.Z z c z n n b m H n T Z h c b H Q Y H c m.z.t.P.U.g.K.6.G.A k x k i i 0 u T T ) _ ] | _ =.| _ ] ( ",
"R.Z g z z b n b Z H b P F C H H ^ ` ! ~ C t.t.e.c.B.k.P.9.Z.^ C G A c c h V T P / / _ _ ( | ] W ( W ",
"R.H z n b F F Z Y Q Z T Y r.t.9.m.A.u.B.:.X.w.w.A.A.p.A.2.a.B.e.j.t.e.r.-.r.^ T ' ] ] | ] :.=.] | ] ",
"R.n g z z b n b Z F b Z n -.;.%.9.t.0.t.@.J :.1.u.u.3.u.=.7.b.:.e.6.%.:.] :.T F T R / / W | _ / ( / ",
"R.F z b b F H F H T F T F 6.5.;.r.b.q.h.;.L :.0.M.M.y.M.<.7.Z.e.g.r.6.e.%.e.^ T ^ ~ ~ / _ &.&._ | | ",
"R.Z z z b Z Z n F Y m F m ;.;.@.5.e.:.6.O.S %.>.u.u.w.u.=.#.u.:.e.6.:.6.@.6.^ Y ! T T R E _ ] ( _ _ ",
"R.F b b n F F F T T F Y F 6.5.;.e.r.6.r.-.L ;.2.M.A.p.S.w.' A.e.g.t.6.e.-.e.` T ^ ~ ! ~ R _ ] _ _ ] ",
"R.H n b Z F F F Y Y F T F 6.6.;.6.r.6.t.-.G %.:.u.M.p.D.y.+.F.r.h.t.6.r.;.r.` R ^ ~ ~ ~ R E ) ) _ ] ",
"R.Y Z n F Y F F Y Q Y T P 6.6.:.6.e.:.e.-.S @.@.1.w.0.p.2.Q Z.9.d.t.e.r.;.t.' ~ ` ^ ~ ~ ~ / ] ] ] { ",
"R.Z v z n Z n m F P Z F Z ;.%.@.;.6.;.e.@.G O.] ;.*.*.0.&.Q n.6.r.e.:.6.@.:.E P R T T T I R / / W W ",
"R.T Z Z H T Y T ! ~ T Q T r.e.6.r.t.6.g.;.G @.] ;.:.%.9.] D B.r.x.g.r.d.:.d.' ~ ' ` / ^ ~ ~ ] ] ] { ",
"R.Z b z n Z n Z F F m F m -.-.%.:.5.%.6.O.V ^ ~ ] ] ) %.~ c r.:.e.6.:.6.@.5.R P T T T T Y P R R R R ",
"R.Y F m F T Y T T ! Y T T e.6.6.r.r.6.g.:.S ' ` #.#.] ;.^ x k.e.k.d.e.t.:.d.' ! ' ^ ^ ^ ~ T ` / ~ / ",
"R.P n b Z H F H P Y F F F 5.;.%.5.6.;.e.%.V ^ ~ ' ' ~ ' T l t.5.t.e.5.e.%.e.~ Y R T T P P m T I P T ",
"R.Y m b F Y F F Y Y F F Y 5.:.;.6.e.5.r.%.V ' ^ @.o.^ @.T t t.6.d.r.6.r.%.r.^ R ^ ~ ! T T P ~ T T R ",
"R.Y m b H T F F Y Y F F Y 6.:.;.e.r.6.t.;.x o.^ @.@.` @.T 9 g.e.k.t.6.r.;.t./ T ^ ^ ~ R ! P ^ R T ! ",
"R.Y Z n H Q F F Y T H H Q e.6.6.e.e.5.r.;.e ' ^ o.' ^ o.P 8 a.6.g.r.e.r.-.r./ R ~ ~ ~ T R P ^ ! T R ",
"R.F n z m F m F F Z F F P 6.;.;.6.6.;.6.@., ! T ^ ` ! ' F 3 e.:.r.r.6.r.;.r.! T ! ~ ~ T T P ~ T T R ",
"R.Y F n Y T H T Q T Y Y T e.6.6.e.r.6.t.-.& ^ ~ ' ' ^ ' F 2 r.6.d.r.6.r.:.r.^ T ~ ~ ~ T R Y ^ T T R ",
"R.r 8 3 9 0 9 0 e r e 9 r h h k k k k x x O.x h h h h x x -.V c V B c c h c h u h h h r u r h r r r ",
"R.u 6 5 0 0 0 0 y y y 0 u u y u p p u p a g.N u a a a M B x.N k N k k k i k k a a a k u i u k i u u ",
"R.0 , , 5 6 5 8 0 6 0 8 0 0 0 0 y y 0 y u e.k e u u u a h e.k u i u u u 0 y y 0 0 e e 0 r 8 e 0 9 9 ",
"R.e 5 , 6 0 6 0 0 0 0 0 y y e y y p y u a r.k y p a i a c k.N a k a i a i a a u i i a y u e i u e e ",
"R.0 5 , 6 7 5 0 0 0 0 8 e y 0 y y y y u u a.N u p p u p k j.k u a i u a e u u e y u y 0 y 0 y e 0 0 ",
"R.0 , < 6 7 5 6 0 8 0 8 0 0 0 e e y y u u r.k y u p y p h r.a y p u u u 0 y u e e y y 0 0 8 e 0 0 8 ",
"R.h e 9 r u e i h h h u k A c A A A A A A ^ V c B B c B c O.K A K G A G A A B x k B c h c h x h h h ",
"R.F b z n Z n F F F H n T 5.@.6.6.6.5.6.#.$ Y Y ~ ! Y ~ b < 6.;.e.6.;.6.-.;.T Y F T T Z H n F F Z n ",
"R.m z z n m b Z Z n F n F -.] -.%.;.-.;.] % Y H Q T H ! z - 6.%.6.:.-.;.-.-.T T F T T F Y F H H H F ",
"R.F b b Z F n F F F Y F T 6.-.7.6.6.6.6.-.$ Y T ^ ~ Y ^ b & e.:.r.e.6.6.:.-.T T F Y T m F m n Z n b ",
"R.c d d j z j z z z b z Z ' ~ ' ' ' ' ' Q 8 n z C Z c Z j i o.^ o.o.^ ^ ^ ! C Z z n C z c z x x z j ",
"R.0 : : 5 5 5 5 6 6 0 6 0 0 0 0 y y e e y e.- # $ % % & 9 r.u 0 y y 0 0 0 0 e 0 8 0 0 5 6 6 5 5 5 , ",
"R.8 - : , , , 5 5 5 6 5 0 0 8 0 0 0 7 0 0 6.- # % % % & q e.y 0 e 0 0 0 0 8 0 0 6 0 0 5 5 5 5 5 5 , ",
"R.z d f j j j c c c c j b n z b n n c c c ^ c j c c c C b ` H C F F Z Z Z b Z n b Z Z c z c z z z z ",
"R.m g z b z v n Z n Z v F H n H F H F F Z T T F T Y F T m T T H T Y H F H n F F n F Z b v n b n v z ",
"R.b f g z f g z v z v g b n z n n n n Z n H F n H F n H v F F n m Z n v m v Z n v b n v j z j v z z ",
"R.v f g z f z g z g b g b n z n z n b n n F Y n Z H n H v T F m m n n g m z n v v v v z f z s g s g ",
"R.s 4 w d w g w g s g s g z g z g b j z z v n b z Z z F j F b n b z b g n z b w f f f s 9 w 4 w 1 4 ",
"R.w 2 2 3 8 8 9 w r w w w r f f f j f f h h h h h h h h r j f h f f r r r r w 8 8 8 3 3 3 3 < < > ; ",
"R.2 = - - ; ; > < < < < 3 < < 8 3 8 8 9 9 w r r r w w 9 r r r r r r 9 r 9 9 r w 9 9 9 8 9 9 8 8 3 < ",
"R.h 9 r r r r h h h j h h x h x c x c V V A A D A C C A A V c C z c V c c c x k k h h h h r r r 9 9 ",
"R.r 8 8 8 r r r r r r f h h h r h h h x x c c V V V V c c c c x h h h r h h h u r r r 9 9 8 8 3 < < ",
"R.- + @ @ @ # # % % % * * + . . + * - - < < < < , , < < , < < < - - @ . . o % % % % % # # # @ + + + ",
"R.w < < < 8 8 8 9 9 9 r 9 % % % r i k h x x c x x c h x c x x h x h r * * % 9 i i r u r r e 0 9 8 8 ",
"R.r 2 3 9 9 r r r r r d > % # * x h c r 8 3 < < < < < < < < 8 8 c k x < % % - h r i r r r 0 e 8 9 8 ",
"R.r 8 8 8 9 9 r r r r e % % % 8 x h x % O .     o   o   X . O o x h x r % % # 8 i r r r 0 r 9 9 8 8 "
};
